<?xml version="1.0" encoding="utf-8"?>
<!-- Generator: Adobe Illustrator 14.0.0, SVG Export Plug-In . SVG Version: 6.00 Build 43363)  -->
<!DOCTYPE svg PUBLIC "-//W3C//DTD SVG 1.1//EN" "http://www.w3.org/Graphics/SVG/1.1/DTD/svg11.dtd">
<svg version="1.1" id="Layer_1" xmlns:sketch="http://www.bohemiancoding.com/sketch/ns"
	 xmlns="http://www.w3.org/2000/svg" xmlns:xlink="http://www.w3.org/1999/xlink" x="0px" y="0px" width="204px" height="34px"
	 viewBox="-34 0 204 34" enable-background="new -34 0 204 34" xml:space="preserve">
<title>buttons-light</title>
<description>Created with Sketch.</description>
<g id="Page-1" sketch:type="MSPage">
	<g id="buttons-light" sketch:type="MSArtboardGroup">
		<path id="Scroll" sketch:type="MSShapeGroup" fill="#FFFFFF" d="M170,0h-34v34h34V0z M153,17.586l4.121-4.122l1.414,1.415
			L153,20.414V17.586L153,17.586z M153,17.586l-4.121-4.122l-1.414,1.415L153,20.414V17.586L153,17.586z"/>
		<path id="More" sketch:type="MSShapeGroup" fill="#FFFFFF" d="M102,0v34h34V0H102z M113,16v2h2v-2H113z M118,16v2h2v-2H118z
			 M123,16v2h2v-2H123z"/>
		<path id="Open" sketch:type="MSShapeGroup" fill="#FFFFFF" d="M34,0v34h34V0H34z M43,11v2h16v-2H43z M43,16v2h16v-2H43z M43,21v2
			h16v-2H43z"/>
		<path id="Close" sketch:type="MSShapeGroup" fill="#FFFFFF" d="M85,18.414l-4.95,4.949l-1.414-1.414L83.586,17l-4.95-4.95
			l1.414-1.414l4.95,4.95l4.949-4.95l1.414,1.414L86.414,17l4.949,4.949l-1.414,1.414L85,18.414z M68,0v34h34V0H68z"/>
		<path fill="#FFFFFF" d="M0,0v34h34V0H0z M19.737,10h2.375v2.709h-2.375V10z M11.61,10h2.375v2.709H11.61V10z M26.565,19.639
			c-0.495,1.2-1.605,2.291-3.331,3.271c-1.726,0.98-3.77,1.471-6.132,1.471h-0.204c-2.369,0-4.415-0.49-6.137-1.471
			c-1.723-0.979-2.831-2.07-3.326-3.271v-0.055l1.327-0.502c0.606,0.799,1.586,1.476,2.941,2.032s3.08,0.835,5.177,0.835h0.241
			c2.078,0,3.799-0.281,5.163-0.844c1.363-0.563,2.352-1.238,2.964-2.023l1.317,0.502V19.639z"/>
		<g>
			<path fill="#FFFFFF" d="M-17.607,24.984h1.008c1.961,0,3.486-0.46,4.573-1.381c1.088-0.92,1.639-2.227,1.655-3.916v-2.656
				h-13.536v2.394c0,1.754,0.545,3.119,1.637,4.096C-21.178,24.497-19.625,24.984-17.607,24.984z"/>
			<path fill="#FFFFFF" d="M-34,0v34H0V0H-34z M-14.263,10h2.375v2.709h-2.375V10z M-22.39,10h2.375v2.709h-2.375V10z M-8.51,19.627
				c0,1.502-0.332,2.829-0.996,3.983c-0.664,1.153-1.608,2.045-2.832,2.673c-1.225,0.629-2.631,0.945-4.22,0.954h-1.103
				c-1.628,0-3.054-0.314-4.278-0.942c-1.225-0.629-2.166-1.525-2.821-2.691c-0.656-1.165-0.992-2.522-1.008-4.07v-4.777H-8.51
				V19.627z"/>
		</g>
	</g>
</g>
</svg>
