<?xml version="1.0" encoding="utf-8"?>
<!-- Generator: Adobe Illustrator 14.0.0, SVG Export Plug-In . SVG Version: 6.00 Build 43363)  -->
<!DOCTYPE svg PUBLIC "-//W3C//DTD SVG 1.1//EN" "http://www.w3.org/Graphics/SVG/1.1/DTD/svg11.dtd">
<svg version="1.1" id="Layer_1" xmlns:sketch="http://www.bohemiancoding.com/sketch/ns"
	 xmlns="http://www.w3.org/2000/svg" xmlns:xlink="http://www.w3.org/1999/xlink" x="0px" y="0px" width="170px" height="34px"
	 viewBox="0 0 170 34" enable-background="new 0 0 170 34" xml:space="preserve">
<title>buttons-light</title>
<description>Created with Sketch.</description>
<g id="Page-1" sketch:type="MSPage">
	<g id="buttons-light" sketch:type="MSArtboardGroup">
		<path id="Scroll" sketch:type="MSShapeGroup" fill="#FFFFFF" d="M170,0h-34v34h34V0z M153,17.586l4.121-4.122l1.414,1.415
			L153,20.414V17.586L153,17.586z M153,17.586l-4.121-4.122l-1.414,1.415L153,20.414V17.586L153,17.586z"/>
		<path id="More" sketch:type="MSShapeGroup" fill="#FFFFFF" d="M102,0v34h34V0H102z M113,16v2h2v-2H113z M118,16v2h2v-2H118z
			 M123,16v2h2v-2H123z"/>
		<path id="Open" sketch:type="MSShapeGroup" fill="#FFFFFF" d="M34,0v34h34V0H34z M43,11v2h16v-2H43z M43,16v2h16v-2H43z M43,21v2
			h16v-2H43z"/>
		<path id="Close" sketch:type="MSShapeGroup" fill="#FFFFFF" d="M85,18.414l-4.95,4.949l-1.414-1.414L83.586,17l-4.95-4.95
			l1.414-1.414l4.95,4.95l4.949-4.95l1.414,1.414L86.414,17l4.949,4.949l-1.414,1.414L85,18.414z M68,0v34h34V0H68z"/>
		<path fill="#FFFFFF" d="M0,0v34h34V0H0z M19.691,10.385h2.471v2.82h-2.471V10.385z M11.23,10.385h2.472v2.82H11.23V10.385z
			 M26.799,20.42c-0.515,1.248-1.671,2.385-3.468,3.405c-1.796,1.021-3.923,1.528-6.383,1.528h-0.213
			c-2.466,0-4.596-0.508-6.389-1.528c-1.793-1.021-2.947-2.157-3.462-3.405v-0.058l1.381-0.522c0.631,0.831,1.651,1.535,3.061,2.115
			c1.41,0.581,3.207,0.869,5.39,0.869h0.25c2.164,0,3.956-0.293,5.375-0.879c1.42-0.585,2.447-1.286,3.086-2.105l1.371,0.522V20.42z
			"/>
	</g>
</g>
</svg>
